#N struct 1061-scope float x float y float x1 float y1 float c1 float c2 float c3 float c4 array vector-min 1061-scope-element array vector-max 1061-scope-element float curx;
#N struct 1061-scope-element float y;
#N canvas 0 54 1354 671 12;
#X obj 496 71 netreceive -u -b -f 2222;
#X obj 495 114 oscparse -f;
#X obj 494 141 list trim;
#X floatatom 493 200 5 0 0 0 - - - 0;
#X obj 493 176 route buttonPress1;
#X obj 492 228 change;
#X floatatom 634 201 5 0 0 0 - - - 0;
#X obj 633 229 change;
#X obj 634 177 route buttonPress2;
#X obj 495 252 sel 1;
#X obj 505 503 s 1-play_one_grain_rcv;
#X obj 502 479 bng 19 250 50 0 empty empty empty 0 -10 0 12 #fcfcfc #000000 #000000;
#X obj 502 414 t b b;
#X floatatom 733 520 5 0 0 0 - - - 0;
#X obj 737 471 bng 19 250 50 0 empty empty empty 0 -10 0 12 #fcfcfc #000000 #000000;
#X obj 729 655 s 1-grain_pitch_rcv;
#X obj 499 384 bng 19 250 50 0 empty empty empty 0 -10 0 12 #fcfcfc #000000 #000000;
#X obj 883 583 / 100;
#X obj 887 474 bng 19 250 50 0 empty empty empty 0 -10 0 12 #fcfcfc #000000 #000000;
#X obj 881 611 s 1-grain_size_rcv;
#X obj 1050 582 / 100;
#X obj 1054 473 bng 19 250 50 0 empty empty empty 0 -10 0 12 #fcfcfc #000000 #000000;
#X obj 1048 610 s 1-sample_offset_rcv;
#X obj 1050 498 random 100;
#X obj 1227 475 random 100;
#X obj 1226 543 s 1-reverse_rcv;
#X obj 502 305 random 100;
#X obj 497 282 bng 19 250 50 0 empty empty empty 0 -10 0 12 #fcfcfc #000000 #000000;
#X obj 568 405 s 1-play_one_grain_rcv;
#X obj 565 381 bng 19 250 50 0 empty empty empty 0 -10 0 12 #fcfcfc #000000 #000000;
#X obj 736 407 s 1-play_one_grain_rcv;
#X obj 733 378 bng 19 250 50 0 empty empty empty 0 -10 0 12 #fcfcfc #000000 #000000;
#X obj 907 403 s 1-play_one_grain_rcv;
#X obj 904 379 bng 19 250 50 0 empty empty empty 0 -10 0 12 #fcfcfc #000000 #000000;
#X obj 500 359 t b;
#X obj 591 356 t b;
#X obj 733 351 t b;
#X obj 1227 499 > 35;
#X msg 706 83 0;
#X obj 708 54 loadbang;
#X obj 706 107 s 1-offset_random_rcv;
#X obj 736 327 moses 90;
#X obj 243 308 bng 80 250 50 0 big_bang big_bang_rcv human 0 -10 0 12 #fcfcfc #000000 #000000;
#X obj 555 255 r big_bang;
#X obj 500 329 moses 75;
#X obj 594 332 moses 80;
#X obj 814 362 delay 50;
#X obj 395 324 print button;
#X obj 383 212 r digital3;
#X obj 383 236 change;
#X obj 383 260 sel 0;
#X msg 699 786 \; pd dsp 1;
#X obj 702 674 loadbang;
#X obj 702 698 delay 1000;
#X floatatom 782 202 5 0 0 0 - - - 0;
#X obj 781 230 change;
#X floatatom 928 208 5 0 0 0 - - - 0;
#X obj 927 236 change;
#X obj 782 178 route buttonPress3;
#X obj 928 184 route buttonPress4;
#X obj 100 414 ys.granular_main 1 sounds/prayer_0.wav;
#X floatatom 734 601 5 0 0 0 - - - 0;
#X obj 733 496 random 100;
#X obj 733 546 / 1000;
#X obj 734 577 + 0.2;
#X obj 883 499 random 80;
#X obj 884 531 + 20;
#X connect 0 0 1 0;
#X connect 1 0 2 0;
#X connect 2 0 4 0;
#X connect 2 0 8 0;
#X connect 2 0 58 0;
#X connect 2 0 59 0;
#X connect 3 0 5 0;
#X connect 4 0 3 0;
#X connect 5 0 9 0;
#X connect 6 0 7 0;
#X connect 7 0 27 0;
#X connect 8 0 6 0;
#X connect 9 0 27 0;
#X connect 11 0 10 0;
#X connect 12 0 11 0;
#X connect 12 1 14 0;
#X connect 12 1 18 0;
#X connect 12 1 21 0;
#X connect 12 1 24 0;
#X connect 13 0 63 0;
#X connect 14 0 62 0;
#X connect 16 0 12 0;
#X connect 17 0 19 0;
#X connect 18 0 65 0;
#X connect 20 0 22 0;
#X connect 21 0 23 0;
#X connect 23 0 20 0;
#X connect 24 0 37 0;
#X connect 26 0 44 0;
#X connect 27 0 26 0;
#X connect 27 0 47 0;
#X connect 29 0 28 0;
#X connect 31 0 30 0;
#X connect 31 0 46 0;
#X connect 33 0 32 0;
#X connect 34 0 16 0;
#X connect 35 0 29 0;
#X connect 36 0 31 0;
#X connect 37 0 25 0;
#X connect 38 0 40 0;
#X connect 39 0 38 0;
#X connect 41 0 36 0;
#X connect 43 0 27 0;
#X connect 44 0 34 0;
#X connect 44 1 45 0;
#X connect 45 0 35 0;
#X connect 45 1 41 0;
#X connect 46 0 33 0;
#X connect 48 0 49 0;
#X connect 49 0 50 0;
#X connect 50 0 27 0;
#X connect 52 0 53 0;
#X connect 53 0 51 0;
#X connect 54 0 55 0;
#X connect 55 0 27 0;
#X connect 56 0 57 0;
#X connect 57 0 27 0;
#X connect 58 0 54 0;
#X connect 59 0 56 0;
#X connect 61 0 15 0;
#X connect 62 0 13 0;
#X connect 63 0 64 0;
#X connect 64 0 61 0;
#X connect 65 0 66 0;
#X connect 66 0 17 0;
