#N struct 1152-scope float x float y float x1 float y1 float c1 float c2 float c3 float c4 array vector-min 1152-scope-element array vector-max 1152-scope-element float curx;
#N struct 1152-scope-element float y;
#N canvas 0 54 1354 671 12;
#X obj 100 414 ys.granular_main 1 sounds/Caroline.wav;
#X obj 496 71 netreceive -u -b -f 2222;
#X obj 495 114 oscparse -f;
#X obj 494 141 list trim;
#X floatatom 493 200 5 0 0 0 - - - 0;
#X obj 493 176 route buttonPress1;
#X obj 492 228 change;
#X floatatom 634 201 5 0 0 0 - - - 0;
#X obj 633 229 change;
#X obj 634 177 route buttonPress2;
#X obj 495 252 sel 1;
#X obj 505 503 s 1-play_one_grain_rcv;
#X obj 502 479 bng 19 250 50 0 empty empty empty 0 -10 0 12 #fcfcfc #000000 #000000;
#X obj 502 414 t b b;
#X floatatom 733 520 5 0 0 0 - - - 0;
#X obj 733 546 / 100;
#X obj 737 471 bng 19 250 50 0 empty empty empty 0 -10 0 12 #fcfcfc #000000 #000000;
#X obj 729 617 s 1-grain_pitch_rcv;
#X obj 499 384 bng 19 250 50 0 empty empty empty 0 -10 0 12 #fcfcfc #000000 #000000;
#X obj 883 583 / 100;
#X obj 887 474 bng 19 250 50 0 empty empty empty 0 -10 0 12 #fcfcfc #000000 #000000;
#X obj 881 611 s 1-grain_size_rcv;
#X obj 1050 582 / 100;
#X obj 1054 473 bng 19 250 50 0 empty empty empty 0 -10 0 12 #fcfcfc #000000 #000000;
#X obj 1048 610 s 1-sample_offset_rcv;
#X obj 1050 498 random 100;
#X obj 1227 475 random 100;
#X obj 1226 543 s 1-reverse_rcv;
#X obj 502 305 random 100;
#X obj 497 282 bng 19 250 50 0 empty empty empty 0 -10 0 12 #fcfcfc #000000 #000000;
#X obj 568 405 s 1-play_one_grain_rcv;
#X obj 565 381 bng 19 250 50 0 empty empty empty 0 -10 0 12 #fcfcfc #000000 #000000;
#X obj 736 407 s 1-play_one_grain_rcv;
#X obj 733 378 bng 19 250 50 0 empty empty empty 0 -10 0 12 #fcfcfc #000000 #000000;
#X obj 907 403 s 1-play_one_grain_rcv;
#X obj 904 379 bng 19 250 50 0 empty empty empty 0 -10 0 12 #fcfcfc #000000 #000000;
#X obj 500 359 t b;
#X obj 591 356 t b;
#X obj 733 351 t b;
#X obj 883 499 random 60;
#X obj 884 531 + 5;
#X obj 1227 499 > 35;
#X obj 734 577 + 0.15;
#X obj 733 496 random 23;
#X msg 882 144 0;
#X obj 884 115 loadbang;
#X obj 882 168 s 1-offset_random_rcv;
#X obj 736 327 moses 90;
#X obj 243 135 bng 80 250 50 0 big_bang big_bang_rcv human 0 -10 0 12 #fcfcfc #000000 #000000;
#X obj 555 255 r big_bang;
#X obj 500 329 moses 75;
#X obj 594 332 moses 80;
#X obj 814 362 delay 50;
#X obj 395 324 print button;
#X obj 808 226 r digital3;
#X obj 808 250 change;
#X obj 808 274 sel 0;
#X msg 699 722 \; pd dsp 1;
#X obj 702 674 loadbang;
#X connect 1 0 2 0;
#X connect 2 0 3 0;
#X connect 3 0 5 0;
#X connect 3 0 9 0;
#X connect 4 0 6 0;
#X connect 5 0 4 0;
#X connect 6 0 10 0;
#X connect 7 0 8 0;
#X connect 9 0 7 0;
#X connect 10 0 29 0;
#X connect 12 0 11 0;
#X connect 13 0 12 0;
#X connect 13 1 16 0;
#X connect 13 1 20 0;
#X connect 13 1 23 0;
#X connect 13 1 26 0;
#X connect 14 0 15 0;
#X connect 15 0 42 0;
#X connect 16 0 43 0;
#X connect 18 0 13 0;
#X connect 19 0 21 0;
#X connect 20 0 39 0;
#X connect 22 0 24 0;
#X connect 23 0 25 0;
#X connect 25 0 22 0;
#X connect 26 0 41 0;
#X connect 28 0 50 0;
#X connect 29 0 28 0;
#X connect 29 0 53 0;
#X connect 31 0 30 0;
#X connect 33 0 32 0;
#X connect 33 0 52 0;
#X connect 35 0 34 0;
#X connect 36 0 18 0;
#X connect 37 0 31 0;
#X connect 38 0 33 0;
#X connect 39 0 40 0;
#X connect 40 0 19 0;
#X connect 41 0 27 0;
#X connect 42 0 17 0;
#X connect 43 0 14 0;
#X connect 44 0 46 0;
#X connect 45 0 44 0;
#X connect 47 0 38 0;
#X connect 49 0 29 0;
#X connect 50 0 36 0;
#X connect 50 1 51 0;
#X connect 51 0 37 0;
#X connect 51 1 47 0;
#X connect 52 0 35 0;
#X connect 54 0 55 0;
#X connect 55 0 56 0;
#X connect 56 0 29 0;
#X connect 58 0 57 0;
