#N canvas 404 25 908 657 12;
#X obj 198 246 osc~ 300;
#X obj 201 168 random 30;
#X obj 200 141 metro 180;
#X obj 197 101 loadbang;
#X obj 201 192 + 40;
#X obj 201 216 mtof;
#X obj 198 270 *~ 0.3;
#X obj 198 294 dac~;
#X obj 211 124 bng 19 250 50 0 empty empty empty 0 -10 0 12 #fcfcfc #000000 #000000;
#X obj 410 279 loadbang;
#X msg 410 303 \; pd dsp 1;
#X connect 0 0 6 0;
#X connect 1 0 4 0;
#X connect 2 0 1 0;
#X connect 3 0 2 0;
#X connect 4 0 5 0;
#X connect 5 0 0 0;
#X connect 6 0 7 0;
#X connect 6 0 7 1;
#X connect 8 0 2 0;
#X connect 9 0 10 0;
